<?xml version="1.0" standalone="no"?>
<!DOCTYPE svg PUBLIC "-//W3C//DTD SVG 20010904//EN"
 "http://www.w3.org/TR/2001/REC-SVG-20010904/DTD/svg10.dtd">
<svg version="1.0" xmlns="http://www.w3.org/2000/svg"
 width="560.000000pt" height="560.000000pt" viewBox="0 0 560.000000 560.000000"
 preserveAspectRatio="xMidYMid meet">
<metadata>
Created by potrace 1.14, written by Peter Selinger 2001-2017
</metadata>
<g transform="translate(0.000000,560.000000) scale(0.100000,-0.100000)"
fill="#000000" stroke="none">
<path d="M2610 4844 c-25 -3 -100 -14 -168 -25 -811 -134 -1472 -733 -1682
-1523 -53 -199 -64 -290 -64 -531 0 -163 5 -246 17 -320 131 -756 621 -1357
1330 -1630 115 -44 167 -44 204 0 22 25 23 33 23 242 l0 215 -27 -6 c-16 -4
-86 -9 -158 -12 -152 -7 -232 7 -328 59 -93 49 -149 112 -206 230 -59 124
-123 211 -188 256 -70 50 -113 92 -113 113 0 46 120 48 215 4 69 -31 141 -99
210 -196 99 -143 192 -201 331 -208 83 -4 157 7 230 34 39 15 42 19 54 72 14
62 49 139 88 189 28 38 36 34 -107 57 -498 78 -764 362 -812 865 -25 260 28
472 159 640 l48 62 -19 72 c-27 106 -20 291 18 406 l27 84 66 -6 c121 -10 300
-82 454 -180 l57 -37 83 19 c157 37 241 45 443 46 200 0 331 -14 471 -51 l55
-14 57 37 c154 98 333 170 454 180 l66 6 27 -84 c38 -115 45 -300 18 -406
l-19 -72 48 -62 c131 -168 184 -380 159 -640 -48 -508 -312 -784 -826 -866
-139 -22 -133 -19 -97 -56 17 -18 43 -57 57 -89 49 -107 55 -164 55 -535 0
-340 0 -342 23 -368 37 -44 89 -44 204 0 709 273 1199 874 1330 1630 24 140
24 500 0 640 -86 498 -328 931 -700 1251 -299 257 -638 416 -1032 485 -117 20
-424 33 -535 23z"/>
<path d="M1437 1883 c-12 -11 -8 -22 14 -34 28 -14 48 3 29 26 -13 16 -32 20
-43 8z"/>
<path d="M1524 1805 c-10 -25 4 -45 31 -45 29 0 33 20 9 44 -19 20 -33 20 -40
1z"/>
<path d="M1603 1694 c-8 -22 9 -48 34 -52 27 -4 35 20 17 47 -18 25 -42 27
-51 5z"/>
<path d="M1700 1567 c0 -29 18 -47 46 -47 32 0 39 17 20 45 -22 34 -66 35 -66
2z"/>
<path d="M1844 1485 c-10 -24 16 -46 49 -43 36 4 44 19 22 42 -21 20 -64 21
-71 1z"/>
<path d="M2183 1484 c-23 -10 -15 -43 11 -50 31 -7 68 12 64 34 -3 17 -50 27
-75 16z"/>
<path d="M2014 1455 c-4 -9 0 -24 9 -33 22 -22 72 -6 72 23 0 27 -72 35 -81
10z"/>
</g>
</svg>
